<svg xmlns="http://www.w3.org/2000/svg" viewBox="0 0 256 256">
  <path fill="#FF6C37" d="M254.312 144.48L148.061 38.303a4.654 4.654 0 0 0-3.32-1.358H111.39a4.655 4.655 0 0 0-3.32 1.358L1.688 144.48a5.739 5.739 0 0 0 0 8.14l106.25 106.177a4.655 4.655 0 0 0 3.32 1.358h33.352a4.655 4.655 0 0 0 3.32-1.358l106.25-106.177a5.739 5.739 0 0 0 0-8.14z"/>
  <path fill="#FFF" d="M127.979 146.452a20.408 20.408 0 0 1-20.415-20.415 20.408 20.408 0 0 1 20.415-20.415 20.408 20.408 0 0 1 20.415 20.415 20.408 20.408 0 0 1-20.415 20.415zm0-70.792c-27.784 0-50.378 22.594-50.378 50.378 0 27.784 22.594 50.378 50.378 50.378 27.784 0 50.378-22.594 50.378-50.378-.073-27.784-22.667-50.378-50.378-50.378z"/>
</svg>

